<?xml version="1.0" encoding="utf-8"?>
<!-- Svg Vector Icons : http://www.onlinewebfonts.com/icon -->
<!DOCTYPE svg PUBLIC "-//W3C//DTD SVG 1.1//EN" "http://www.w3.org/Graphics/SVG/1.1/DTD/svg11.dtd">
<svg version="1.1" xmlns="http://www.w3.org/2000/svg" xmlns:xlink="http://www.w3.org/1999/xlink" x="0px" y="0px" viewBox="0 0 256 256" enable-background="new 0 0 256 256" xml:space="preserve">
<metadata> Svg Vector Icons : http://www.onlinewebfonts.com/icon </metadata>
<g><g><g><path stroke-width="10" fill-opacity="0" stroke="#000000"  d="M99.3,68.6C73.2,101,51.8,127.8,51.7,128c-0.1,0.2,21.3,27,47.4,59.5c42.8,53.2,47.6,59,48.3,58.4c0.4-0.4,13.3-10.8,28.8-23.2c15.4-12.4,28-22.7,27.9-23c0-0.2-12.9-16.3-28.5-35.7c-15.6-19.4-28.4-35.5-28.5-35.7c0-0.3,12.8-16.6,28.6-36.2c15.8-19.6,28.6-35.9,28.6-36.1c-0.2-0.5-55.4-45.2-56.8-46C146.9,9.7,136.3,22.6,99.3,68.6z M161.5,51.6c5.3,4.2,9.5,7.9,9.4,8.2c0,0.3-12.3,15.7-27.2,34.2c-14.9,18.5-27,33.9-27,34.2c0,0.3,12.1,15.6,26.8,33.8c14.7,18.3,26.9,33.5,27.2,33.8c0.2,0.3-3.1,3.4-10,8.9l-10.4,8.4l-4-5c-16.4-20.1-64-79.6-64-80c0-0.3,15.3-19.5,34.1-42.9c29.4-36.5,34.3-42.3,34.9-41.9C151.6,43.8,156.3,47.4,161.5,51.6z"/></g></g></g>
</svg>